<svg xmlns:dc="http://purl.org/dc/elements/1.1/" xmlns:cc="http://creativecommons.org/ns#" xmlns:rdf="http://www.w3.org/1999/02/22-rdf-syntax-ns#" xmlns:svg="http://www.w3.org/2000/svg" xmlns="http://www.w3.org/2000/svg" xmlns:sodipodi="http://sodipodi.sourceforge.net/DTD/sodipodi-0.dtd" xmlns:inkscape="http://www.inkscape.org/namespaces/inkscape" version="1.0" width="1543.475" height="498.40228" viewBox="0 0 15434.75 4984.0228" preserveAspectRatio="xMidYMid meet" id="svg2" inkscape:version="0.91 r13725" sodipodi:docname="be.svg">
  <metadata id="metadata2964">
    <rdf:RDF>
      <cc:Work rdf:about="">
        <dc:format>image/svg+xml</dc:format>
        <dc:type rdf:resource="http://purl.org/dc/dcmitype/StillImage"/>
        <dc:title/>
      </cc:Work>
    </rdf:RDF>
  </metadata>
  <defs id="defs2962"/>
  <sodipodi:namedview pagecolor="#ffffff" bordercolor="#666666" borderopacity="1" objecttolerance="10" gridtolerance="10" guidetolerance="10" inkscape:pageopacity="0" inkscape:pageshadow="2" inkscape:window-width="1920" inkscape:window-height="1057" id="namedview2960" showgrid="false" inkscape:zoom="0.70710678" inkscape:cx="682.93534" inkscape:cy="266.17589" inkscape:window-x="-8" inkscape:window-y="-8" inkscape:window-maximized="1" inkscape:current-layer="svg2" fit-margin-top="0" fit-margin-left="0" fit-margin-right="0" fit-margin-bottom="0"/>
  <path style="fill:#ffffff;fill-opacity:1;fill-rule:evenodd;stroke:none;stroke-width:10px;stroke-linecap:butt;stroke-linejoin:miter;stroke-opacity:1" d="m 1222.0833,2611.5227 500,1249.9999 216.6667,125 958.3333,-16.6667 58.3334,-4.1666 270.8332,-108.3334 875,-250 329.1667,-1104.1665 -145.8334,-1354.1667 -312.5,-416.66675 -270.8333,-270.8333 -554.1667,-270.8333 -1162.4999,8.3333 -545.8333,141.6667 -254.1667,112.5 -279.1666,2079.16665 183.3333,20.8334" id="path7961" inkscape:connector-curvature="0"/>
  <g id="g2906" style="fill:#00c2a2;stroke:none" transform="translate(-1886.25,-1895.9773)">
    <path d="m 7530,5980 c -76,-10 -220,-47 -285,-74 l -35,-15 0,-85 c 0,-47 4,-87 9,-90 5,-3 51,10 104,28 127,47 228,66 339,66 202,0 332,-63 373,-179 23,-67 20,-176 -9,-236 -43,-92 -112,-137 -356,-225 -80,-29 -165,-63 -191,-75 -120,-61 -225,-172 -254,-268 -22,-73 -20,-210 4,-280 52,-150 181,-255 361,-293 151,-32 475,2 590,61 l 30,15 -26,68 c -30,80 -36,87 -62,73 -11,-6 -64,-22 -118,-36 -125,-33 -297,-38 -385,-12 -87,26 -149,73 -182,137 -25,49 -28,63 -24,125 2,39 11,84 20,101 40,77 135,135 332,204 332,115 463,230 496,438 15,93 0,209 -38,290 -55,116 -182,211 -334,247 -82,19 -262,26 -359,15 z" id="path2908" inkscape:connector-curvature="0"/>
    <path d="m 10325,5952 c -180,-54 -309,-192 -360,-387 -36,-140 -12,-369 52,-488 41,-78 146,-178 223,-215 199,-94 445,-59 579,83 92,97 133,220 135,405 l 1,115 -399,3 -399,2 7,47 c 14,103 84,207 173,255 104,57 284,58 431,2 101,-38 97,-40 100,43 3,84 1,86 -108,123 -92,32 -346,38 -435,12 z m 421,-698 c -13,-128 -66,-222 -150,-267 -33,-17 -58,-21 -131,-22 -81,0 -95,3 -143,30 -83,45 -141,147 -158,276 l -7,49 298,0 298,0 -7,-66 z" id="path2910" inkscape:connector-curvature="0"/>
    <path d="m 11451,5954 c -183,-49 -316,-188 -368,-384 -23,-88 -23,-271 1,-360 74,-276 310,-432 589,-392 258,37 390,213 399,533 l 3,114 -403,3 c -378,2 -403,3 -398,20 2,9 8,33 11,52 20,102 101,202 199,246 55,25 72,28 166,27 108,-1 190,-17 276,-54 27,-11 51,-16 56,-11 5,5 8,40 6,78 -3,68 -3,69 -39,86 -19,10 -71,27 -114,38 -96,25 -300,27 -384,4 z m 414,-691 c -20,-165 -81,-257 -189,-288 -76,-22 -172,-15 -236,18 -78,40 -138,144 -158,272 l -9,55 300,0 299,0 -7,-57 z" id="path2912" inkscape:connector-curvature="0"/>
    <path d="m 13032,5954 c -58,-40 -65,-119 -14,-166 38,-35 75,-42 118,-22 71,34 85,115 30,170 -27,27 -42,34 -73,34 -21,0 -49,-7 -61,-16 z" id="path2914" inkscape:connector-curvature="0"/>
    <path d="m 13636,5954 c -148,-36 -277,-141 -342,-279 -96,-201 -79,-450 43,-629 109,-160 296,-246 509,-232 90,5 235,42 281,72 l 23,14 -21,53 c -32,82 -33,83 -132,52 -77,-24 -98,-27 -199,-23 -98,3 -120,7 -163,30 -125,66 -195,202 -195,381 0,197 84,342 229,398 106,41 284,26 419,-36 63,-29 64,-27 60,71 -3,68 -4,69 -38,86 -110,53 -343,74 -474,42 z" id="path2916" inkscape:connector-curvature="0"/>
    <path d="m 14593,5955 c -135,-37 -258,-133 -320,-250 -50,-95 -67,-173 -67,-310 0,-131 15,-205 61,-303 35,-75 148,-188 226,-225 114,-55 251,-70 382,-42 98,21 167,58 245,132 122,114 178,277 167,479 -15,270 -158,459 -392,519 -74,19 -232,19 -302,0 z m 288,-162 c 124,-55 199,-205 199,-395 0,-207 -73,-350 -209,-411 -34,-15 -67,-21 -127,-21 -137,0 -224,57 -285,189 -69,146 -65,363 8,498 35,64 113,133 172,152 63,20 182,14 242,-12 z" id="path2918" inkscape:connector-curvature="0"/>
    <path d="m 8669,5953 c -15,-2 -51,-18 -80,-36 -43,-26 -59,-44 -84,-91 l -30,-60 -3,-392 -3,-393 -102,-3 -102,-3 0,-65 0,-65 102,-3 102,-3 3,-152 3,-152 95,0 95,0 3,152 3,152 147,3 147,3 0,65 0,65 -147,3 -148,3 0,364 c 0,416 3,434 67,456 46,15 132,7 205,-19 31,-11 59,-17 62,-14 3,3 6,34 6,68 0,59 -2,64 -28,78 -72,37 -212,55 -313,39 z" id="path2920" inkscape:connector-curvature="0"/>
    <path d="m 12460,5945 c -61,-19 -113,-65 -142,-122 -23,-48 -23,-52 -26,-445 l -3,-397 -102,-3 -102,-3 0,-65 0,-65 102,-3 102,-3 3,-152 3,-152 95,0 95,0 3,152 3,152 142,3 142,3 0,65 0,65 -142,3 -143,3 0,370 c 0,412 2,427 60,448 51,17 118,13 195,-14 39,-13 74,-20 78,-16 4,5 7,37 5,72 l -3,64 -65,24 c -83,30 -233,38 -300,16 z" id="path2922" inkscape:connector-curvature="0"/>
    <path d="m 17000,5938 c -30,-16 -50,-36 -64,-63 -20,-38 -21,-56 -21,-395 l 0,-355 -25,-50 c -35,-71 -81,-95 -181,-95 -100,0 -169,33 -216,103 -64,95 -66,116 -73,507 l -5,355 -100,0 -100,0 -5,-410 c -5,-404 -5,-411 -28,-457 -35,-70 -71,-92 -161,-97 -91,-4 -135,8 -189,55 -46,39 -70,79 -98,164 -15,47 -19,105 -23,400 l -6,345 -95,0 -95,0 -5,-472 c -3,-259 -8,-474 -12,-478 -12,-13 -75,-7 -106,9 l -31,16 -26,-43 -25,-42 32,-28 c 73,-61 200,-85 268,-48 39,20 80,82 80,121 0,25 0,25 19,-5 29,-49 108,-112 170,-137 78,-31 230,-31 312,1 63,24 148,99 169,150 7,17 15,31 19,31 4,0 15,-16 26,-36 24,-45 93,-106 151,-134 70,-35 161,-46 254,-32 93,13 149,39 208,96 98,93 106,138 100,541 -3,191 -2,329 4,338 12,22 57,22 103,0 39,-18 40,-18 74,39 l 22,38 -48,30 c -97,62 -198,76 -273,38 z" id="path2924" inkscape:connector-curvature="0"/>
    <path d="m 9267,5944 c -4,-4 -7,-213 -7,-464 0,-373 -3,-460 -14,-475 -17,-23 -76,-24 -110,-1 -26,17 -33,12 -69,-46 -16,-26 -16,-27 11,-46 126,-89 264,-94 324,-12 10,14 23,53 29,88 l 11,63 20,-38 c 28,-54 102,-126 156,-154 36,-18 67,-25 134,-27 76,-4 94,-1 142,21 31,14 56,32 56,40 0,14 -13,55 -39,120 l -11,28 -42,-23 c -31,-16 -61,-22 -108,-23 -109,0 -173,50 -235,187 -47,103 -56,172 -63,478 l -7,285 -85,3 c -47,1 -89,0 -93,-4 z" id="path2926" inkscape:connector-curvature="0"/>
  </g>
  <g id="g2928" style="fill:#28334a;stroke:none" transform="translate(-1886.25,-1895.9773)">
    <path d="M 213.07031 327.16016 C 213.02571 327.16294 212.99336 327.17813 212.97461 327.20312 C 212.77461 327.60312 211.975 332.60273 211.375 338.30273 C 209.175 358.60273 203.375 375.80156 194.375 389.10156 L 189.375 396.40234 L 191.77539 397.90234 C 198.37539 402.20234 218.075 407.80273 231.875 409.30273 C 235.64529 409.73118 238.76367 410.04737 240.08008 410.20312 L 240.08008 435.51172 C 236.98624 438.41802 232.09751 443.17983 226.375 448.90234 L 209.875 465.40234 L 226.375 481.90234 L 242.875 498.40234 L 259.27539 481.90234 L 275.77539 465.50195 L 259.875 449.20312 C 254.27418 443.47502 249.47167 438.63264 246.47461 435.64453 L 246.47461 410.01172 C 253.76033 409.32854 265.80519 407.65303 271.17578 406.40234 C 280.37578 404.20234 293.575 399.00234 295.375 396.90234 C 296.275 395.80234 295.775 394.50312 292.875 390.70312 C 287.275 383.40313 281.77461 371.00234 278.47461 358.90234 C 276.47461 351.00234 275.17539 348.00313 274.27539 348.20312 C 273.47539 348.40312 270.07422 349.10313 266.57422 349.70312 C 253.17422 351.90312 236.17578 345.60234 221.17578 332.90234 C 217.23828 329.52734 213.73938 327.11841 213.07031 327.16016 z M 242.375 442.90234 L 242.375 465.20312 C 242.375 477.40312 242.27422 487.40234 242.07422 487.40234 C 241.97422 487.40234 236.875 482.40234 230.875 476.40234 L 219.875 465.40234 L 231.17578 454.10156 L 242.375 442.90234 z " transform="matrix(9.9999999,0,0,10.000001,1886.25,1895.9773)" id="path2930"/>
    <path d="m 5288,4841 c -75,-25 -119,-53 -167,-108 -244,-276 25,-702 375,-595 267,83 352,408 158,607 -93,96 -246,136 -366,96 z" id="path2934" inkscape:connector-curvature="0"/>
    <path d="m 11545,4579 c -83,-11 -206,-41 -258,-62 l -37,-16 0,-115 c 0,-63 4,-117 9,-121 6,-3 38,4 73,16 101,34 205,50 323,50 168,1 240,-33 291,-137 24,-50 28,-72 32,-172 l 5,-116 -44,38 c -106,90 -236,126 -387,107 -205,-27 -340,-148 -398,-358 -25,-91 -30,-292 -10,-394 47,-234 201,-392 410,-422 150,-22 287,18 379,108 l 46,46 3,-63 3,-63 150,0 150,0 3,613 c 2,684 2,686 -65,814 -61,116 -166,196 -308,233 -73,20 -274,27 -370,14 z m 295,-799 c 77,-40 123,-117 140,-239 26,-187 -54,-358 -190,-406 -162,-57 -294,50 -320,257 -16,133 14,292 68,351 57,64 213,83 302,37 z" id="path2936" inkscape:connector-curvature="0"/>
    <path d="m 9220,4051 c -241,-35 -396,-172 -457,-401 -23,-89 -23,-281 0,-370 71,-269 290,-423 577,-407 178,10 301,71 378,187 77,115 105,230 100,410 l -3,105 -376,3 -377,2 8,35 c 44,197 279,259 588,156 59,-19 85,-24 88,-16 3,6 3,58 2,116 l -3,104 -55,22 c -115,45 -346,72 -470,54 z m 286,-733 c -15,-112 -52,-180 -119,-215 -47,-24 -142,-22 -195,6 -71,37 -100,88 -127,229 l -7,32 227,0 228,0 -7,-52 z" id="path2938" inkscape:connector-curvature="0"/>
    <path d="m 10230,4050 c -188,-30 -302,-138 -330,-315 -40,-247 115,-431 380,-452 97,-7 177,9 269,52 l 74,35 -5,-68 c -9,-122 -56,-179 -168,-203 -64,-14 -215,-6 -305,15 -33,8 -63,12 -67,8 -15,-16 -47,-166 -37,-178 23,-27 271,-74 394,-73 283,0 442,113 486,343 5,27 9,162 9,300 0,138 4,257 9,265 9,13 49,12 97,-4 18,-6 27,4 62,63 23,39 42,75 42,80 0,15 -119,88 -173,106 -117,40 -231,9 -277,-76 l -25,-46 -18,24 c -26,35 -101,84 -161,104 -64,23 -181,32 -256,20 z m 310,-243 c 56,-29 80,-74 80,-148 0,-64 -27,-115 -73,-137 -75,-36 -214,-33 -266,6 -83,61 -95,186 -24,256 34,34 71,44 164,45 61,1 84,-4 119,-22 z" id="path2940" inkscape:connector-curvature="0"/>
    <path d="m 13480,4050 c -238,-33 -407,-188 -455,-418 -19,-90 -19,-246 1,-335 48,-216 199,-368 409,-412 253,-53 479,34 579,224 49,94 66,178 69,334 l 2,132 -377,3 c -428,3 -397,-5 -354,88 47,101 148,154 293,154 84,0 214,-23 290,-52 34,-13 58,-17 64,-11 5,5 8,57 7,114 -3,102 -3,104 -31,117 -101,49 -359,81 -497,62 z m 287,-744 c -7,-78 -39,-149 -81,-181 -89,-68 -238,-46 -301,45 -24,35 -55,134 -55,177 l 0,23 221,0 222,0 -6,-64 z" id="path2942" inkscape:connector-curvature="0"/>
    <path d="m 12620,4025 c -46,-21 -77,-51 -103,-100 -22,-40 -22,-45 -25,-737 -3,-782 2,-732 -75,-707 -23,7 -46,13 -50,14 -4,0 -25,-31 -47,-70 -46,-82 -45,-85 55,-140 174,-98 343,-76 406,51 l 24,49 5,700 c 3,385 7,702 8,704 1,2 19,1 40,-2 90,-14 83,-17 126,57 l 39,69 -29,24 c -16,13 -62,40 -102,60 -63,32 -85,37 -155,40 -59,2 -92,-1 -117,-12 z" id="path2944" inkscape:connector-curvature="0"/>
    <path d="m 7264,4017 c -2,-7 -3,-62 -2,-123 l 3,-109 68,-3 67,-3 0,-584 0,-584 -67,-3 -68,-3 0,-120 0,-120 350,-3 c 214,-2 389,1 450,8 238,27 396,121 468,277 18,39 22,66 22,148 0,87 -3,107 -27,157 -31,66 -92,136 -143,164 -19,10 -35,21 -35,24 0,3 26,16 58,30 74,32 164,120 199,196 73,159 35,363 -89,481 -99,93 -222,144 -407,168 -147,20 -839,21 -847,2 z m 867,-261 c 105,-39 159,-115 159,-226 0,-84 -25,-139 -81,-179 -69,-51 -125,-62 -321,-68 l -178,-6 0,253 0,252 188,-4 c 143,-4 198,-9 233,-22 z m -56,-741 c 106,-36 145,-89 145,-196 0,-155 -95,-209 -367,-209 l -143,0 0,216 0,217 158,-6 c 110,-3 172,-10 207,-22 z" id="path2946" inkscape:connector-curvature="0"/>
    <path d="m 3932,3487 c -51,-19 -98,-62 -122,-112 -31,-64 -25,-156 13,-213 31,-48 101,-92 157,-99 126,-17 243,87 243,217 0,151 -150,258 -291,207 z" id="path2948" inkscape:connector-curvature="0"/>
    <path d="m 5444,3390 c -43,-14 -111,-90 -119,-134 -22,-112 61,-216 172,-216 60,0 96,15 134,57 39,41 49,66 49,118 0,122 -120,210 -236,175 z" id="path2950" inkscape:connector-curvature="0"/>
  </g>
  <g id="g2952" style="opacity:1;fill:#ffa300;stroke:none" transform="translate(-1886.25,-1895.9773)">
    <path d="m 3040,5975 c -445,-84 -847,-452 -1035,-945 -42,-109 -89,-296 -106,-420 -17,-121 -17,-458 0,-575 71,-495 273,-906 628,-1276 165,-171 384,-343 525,-409 103,-49 184,-39 242,30 33,40 33,73 1,130 -59,104 -115,230 -135,305 -30,112 -37,292 -16,411 44,256 141,461 416,879 76,116 157,244 179,286 115,213 178,558 153,835 -15,170 -43,276 -104,403 -84,175 -217,288 -393,336 -84,23 -262,28 -355,10 z" id="path2954" inkscape:connector-curvature="0"/>
    <path d="m 5325,5984 c -221,-36 -379,-152 -478,-350 -37,-72 -71,-175 -86,-256 l -8,-48 109,-61 c 237,-133 419,-197 530,-185 83,8 116,25 198,101 93,85 152,115 224,115 44,0 60,-5 85,-25 58,-49 63,-80 64,-421 2,-291 1,-314 -21,-399 -12,-49 -43,-133 -68,-186 l -46,-96 35,-89 c 125,-312 155,-647 87,-971 -51,-245 -166,-492 -321,-690 -27,-34 -45,-64 -40,-67 11,-7 195,115 296,197 113,91 328,315 412,427 258,344 400,704 444,1119 16,156 7,444 -20,591 -68,381 -230,693 -490,942 -229,221 -498,344 -766,353 -60,2 -123,1 -140,-1 z" id="path2956" inkscape:connector-curvature="0"/>
    <path d="m 3937,4573 c -2,-5 -14,-38 -26,-74 -34,-104 -91,-206 -250,-448 -218,-333 -292,-469 -354,-647 -49,-140 -62,-221 -61,-359 2,-175 30,-267 149,-483 58,-106 46,-208 -36,-283 l -40,-37 83,-61 c 98,-72 309,-179 425,-215 175,-54 275,-69 468,-70 245,-1 413,31 614,117 487,208 823,619 937,1147 27,121 27,467 1,590 -22,105 -52,207 -78,267 l -20,46 -77,-80 c -42,-44 -133,-126 -202,-183 -224,-187 -327,-302 -404,-455 -19,-39 -67,-155 -107,-260 -90,-240 -172,-412 -253,-534 -138,-207 -304,-327 -381,-277 -43,28 -33,62 58,203 257,394 387,712 387,942 0,157 -9,171 -445,656 -136,152 -290,353 -335,436 -31,59 -45,75 -53,62 z m 172,-1113 c 23,-11 53,-39 68,-62 24,-36 28,-51 28,-118 0,-67 -4,-82 -28,-118 -37,-57 -95,-86 -173,-87 -118,0 -204,85 -204,203 0,164 161,258 309,182 z m 1481,-99 c 51,-25 82,-90 77,-159 -7,-90 -62,-143 -154,-149 -44,-3 -67,1 -93,15 -75,41 -107,135 -72,213 44,99 140,131 242,80 z" id="path2958" inkscape:connector-curvature="0"/>
  </g>
</svg>
