<?xml version="1.0" encoding="utf-8"?>
<!-- Generator: Adobe Illustrator 20.1.0, SVG Export Plug-In . SVG Version: 6.00 Build 0)  -->
<svg version="1.1"
	 id="svg2" inkscape:version="0.91 r13725" sodipodi:docname="be.svg" xmlns:cc="http://creativecommons.org/ns#" xmlns:dc="http://purl.org/dc/elements/1.1/" xmlns:inkscape="http://www.inkscape.org/namespaces/inkscape" xmlns:rdf="http://www.w3.org/1999/02/22-rdf-syntax-ns#" xmlns:sodipodi="http://sodipodi.sourceforge.net/DTD/sodipodi-0.dtd" xmlns:svg="http://www.w3.org/2000/svg"
	 xmlns="http://www.w3.org/2000/svg" xmlns:xlink="http://www.w3.org/1999/xlink" x="0px" y="0px" viewBox="0 0 500 500"
	 style="enable-background:new 0 0 500 500;" xml:space="preserve">
<style type="text/css">
	.st0{fill:#28334A;}
	.st1{fill:#CE9439;}
</style>
<path class="st0" d="M296.1,373.5c-4.8-6.3-9.6-17-12.4-27.5c-1.7-6.8-2.9-9.4-3.6-9.2c-0.7,0.2-3.6,0.8-6.7,1.3
	c-11.6,1.9-26.3-3.5-39.2-14.5c-3.4-2.9-6.4-5-7-5c0,0-0.1,0-0.1,0c-0.2,0.3-0.9,4.7-1.4,9.6c-1.9,17.5-6.9,32.4-14.7,43.9l-4.3,6.3
	l2.1,1.3c5.7,3.7,22.7,8.6,34.7,9.9c3.3,0.4,6,0.6,7.1,0.8v2.7c-11.2,1.5-19.9,11-19.9,22.7c0,12.6,10.2,22.9,22.9,22.9
	c12.6,0,22.9-10.2,22.9-22.9c0-11.8-8.9-21.5-20.3-22.7v-2.8c6.3-0.6,16.7-2,21.3-3.1c8-1.9,19.4-6.4,20.9-8.2
	C299.1,377.9,298.6,376.8,296.1,373.5z M253.4,401.4l4.4,8.9l9.9,1.4l-7.1,6.9l1.7,9.8l-8.8-4.6l-8.8,4.6l1.7-9.8l-7.1-6.9l9.9-1.4
	L253.4,401.4z"/>
<path id="path2934" inkscape:connector-curvature="0" class="st0" d="M337,290.4c-6.5-2.2-10.3-4.6-14.4-9.3
	c-21.1-23.9,2.2-60.7,32.4-51.4c23.1,7.2,30.4,35.3,13.7,52.5C360.6,290.4,347.4,293.8,337,290.4z"/>
<path id="path2948" inkscape:connector-curvature="0" class="st0" d="M219.8,173.3c-4.4-1.6-8.5-5.4-10.5-9.7
	c-2.7-5.5-2.2-13.5,1.1-18.4c2.7-4.1,8.7-8,13.6-8.6c10.9-1.5,21,7.5,21,18.8C245,168.5,232,177.7,219.8,173.3z"/>
<path id="path2950" inkscape:connector-curvature="0" class="st0" d="M350.5,164.9c-3.7-1.2-9.6-7.8-10.3-11.6
	c-1.9-9.7,5.3-18.7,14.9-18.7c5.2,0,8.3,1.3,11.6,4.9c3.4,3.5,4.2,5.7,4.2,10.2C370.9,160.4,360.5,168,350.5,164.9z"/>
<g id="g2952" transform="translate(-1886.25,-1895.9773)">
	<path id="path2954" inkscape:connector-curvature="0" class="st1" d="M2029,2284.3c-38.5-7.3-73.2-39.1-89.5-81.7
		c-3.6-9.4-7.7-25.6-9.2-36.3c-1.5-10.5-1.5-39.6,0-49.7c6.1-42.8,23.6-78.3,54.3-110.3c14.3-14.8,33.2-29.6,45.4-35.3
		c8.9-4.2,15.9-3.4,20.9,2.6c2.9,3.5,2.9,6.3,0.1,11.2c-5.1,9-9.9,19.9-11.7,26.4c-2.6,9.7-3.2,25.2-1.4,35.5
		c3.8,22.1,12.2,39.8,36,76c6.6,10,13.6,21.1,15.5,24.7c9.9,18.4,15.4,48.2,13.2,72.2c-1.3,14.7-3.7,23.9-9,34.8
		c-7.3,15.1-18.8,24.9-34,29C2052.4,2285.5,2037,2285.9,2029,2284.3z"/>
	<path id="path2956" inkscape:connector-curvature="0" class="st1" d="M2226.5,2285.1c-19.1-3.1-32.8-13.1-41.3-30.2
		c-3.2-6.2-6.1-15.1-7.4-22.1l-0.7-4.1l9.4-5.3c20.5-11.5,36.2-17,45.8-16c7.2,0.7,10,2.2,17.1,8.7c8,7.3,13.1,9.9,19.4,9.9
		c3.8,0,5.2-0.4,7.3-2.2c5-4.2,5.4-6.9,5.5-36.4c0.2-25.2,0.1-27.1-1.8-34.5c-1-4.2-3.7-11.5-5.9-16.1l-4-8.3l3-7.7
		c10.8-27,13.4-55.9,7.5-83.9c-4.4-21.2-14.3-42.5-27.7-59.6c-2.3-2.9-3.9-5.5-3.5-5.8c1-0.6,16.9,9.9,25.6,17
		c9.8,7.9,28.3,27.2,35.6,36.9c22.3,29.7,34.6,60.8,38.4,96.7c1.4,13.5,0.6,38.4-1.7,51.1c-5.9,32.9-19.9,59.9-42.3,81.4
		c-19.8,19.1-43,29.7-66.2,30.5C2233.4,2285.4,2227.9,2285.3,2226.5,2285.1z"/>
	<path id="path2958" inkscape:connector-curvature="0" class="st1" d="M2106.5,2163.2c-0.2-0.4-1.2-3.3-2.2-6.4
		c-2.9-9-7.9-17.8-21.6-38.7c-18.8-28.8-25.2-40.5-30.6-55.9c-4.2-12.1-5.4-19.1-5.3-31c0.2-15.1,2.6-23.1,12.9-41.7
		c5-9.2,4-18-3.1-24.5l-3.5-3.2l7.2-5.3c8.5-6.2,26.7-15.5,36.7-18.6c15.1-4.7,23.8-6,40.4-6c21.2-0.1,35.7,2.7,53.1,10.1
		c42.1,18,71.1,53.5,81,99.1c2.3,10.5,2.3,40.4,0.1,51c-1.9,9.1-4.5,17.9-6.7,23.1l-1.7,4l-6.7-6.9c-3.6-3.8-11.5-10.9-17.5-15.8
		c-19.4-16.2-28.3-26.1-34.9-39.3c-1.6-3.4-5.8-13.4-9.2-22.5c-7.8-20.7-14.9-35.6-21.9-46.2c-11.9-17.9-26.3-28.3-32.9-23.9
		c-3.7,2.4-2.9,5.4,5,17.5c22.2,34.1,33.4,61.5,33.4,81.4c0,13.6-0.8,14.8-38.5,56.7c-11.8,13.1-25.1,30.5-29,37.7
		C2108.4,2162.9,2107.2,2164.3,2106.5,2163.2z M2121.4,2067c2-1,4.6-3.4,5.9-5.4c2.1-3.1,2.4-4.4,2.4-10.2c0-5.8-0.3-7.1-2.4-10.2
		c-3.2-4.9-8.2-7.4-15-7.5c-10.2,0-17.6,7.3-17.6,17.5C2094.7,2065.4,2108.6,2073.5,2121.4,2067z M2249.4,2058.4
		c4.4-2.2,7.1-7.8,6.7-13.7c-0.6-7.8-5.4-12.4-13.3-12.9c-3.8-0.3-5.8,0.1-8,1.3c-6.5,3.5-9.2,11.7-6.2,18.4
		C2232.2,2060.1,2240.5,2062.8,2249.4,2058.4z"/>
</g>
</svg>
