<svg xmlns:dc="http://purl.org/dc/elements/1.1/" xmlns:cc="http://creativecommons.org/ns#" xmlns:rdf="http://www.w3.org/1999/02/22-rdf-syntax-ns#" xmlns:svg="http://www.w3.org/2000/svg" xmlns="http://www.w3.org/2000/svg" xmlns:sodipodi="http://sodipodi.sourceforge.net/DTD/sodipodi-0.dtd" xmlns:inkscape="http://www.inkscape.org/namespaces/inkscape" version="1.0" width="500" height="500" viewBox="0 0 5000 5000" preserveAspectRatio="xMidYMid meet" id="svg2" inkscape:version="0.91 r13725" sodipodi:docname="be.svg">
  <metadata id="metadata2964">
    <rdf:RDF>
      <cc:Work rdf:about="">
        <dc:format>image/svg+xml</dc:format>
        <dc:type rdf:resource="http://purl.org/dc/dcmitype/StillImage"/>
        <dc:title/>
      </cc:Work>
    </rdf:RDF>
  </metadata>
  <defs id="defs2962"/>
  <g id="g2928" style="fill:#28334a;stroke:none" transform="translate(-1886.25,-1895.9773)">
    <path d="M 213.07031 327.16016 C 213.02571 327.16294 212.99336 327.17813 212.97461 327.20312 C 212.77461 327.60312 211.975 332.60273 211.375 338.30273 C 209.175 358.60273 203.375 375.80156 194.375 389.10156 L 189.375 396.40234 L 191.77539 397.90234 C 198.37539 402.20234 218.075 407.80273 231.875 409.30273 C 235.64529 409.73118 238.76367 410.04737 240.08008 410.20312 L 240.08008 435.51172 C 236.98624 438.41802 232.09751 443.17983 226.375 448.90234 L 209.875 465.40234 L 226.375 481.90234 L 242.875 498.40234 L 259.27539 481.90234 L 275.77539 465.50195 L 259.875 449.20312 C 254.27418 443.47502 249.47167 438.63264 246.47461 435.64453 L 246.47461 410.01172 C 253.76033 409.32854 265.80519 407.65303 271.17578 406.40234 C 280.37578 404.20234 293.575 399.00234 295.375 396.90234 C 296.275 395.80234 295.775 394.50312 292.875 390.70312 C 287.275 383.40313 281.77461 371.00234 278.47461 358.90234 C 276.47461 351.00234 275.17539 348.00313 274.27539 348.20312 C 273.47539 348.40312 270.07422 349.10313 266.57422 349.70312 C 253.17422 351.90312 236.17578 345.60234 221.17578 332.90234 C 217.23828 329.52734 213.73938 327.11841 213.07031 327.16016 z M 242.375 442.90234 L 242.375 465.20312 C 242.375 477.40312 242.27422 487.40234 242.07422 487.40234 C 241.97422 487.40234 236.875 482.40234 230.875 476.40234 L 219.875 465.40234 L 231.17578 454.10156 L 242.375 442.90234 z " transform="matrix(9.9999999,0,0,10.000001,1886.25,1895.9773)" id="path2930"/>
    <path d="m 5288,4841 c -75,-25 -119,-53 -167,-108 -244,-276 25,-702 375,-595 267,83 352,408 158,607 -93,96 -246,136 -366,96 z" id="path2934" inkscape:connector-curvature="0"/>
    <path d="m 3932,3487 c -51,-19 -98,-62 -122,-112 -31,-64 -25,-156 13,-213 31,-48 101,-92 157,-99 126,-17 243,87 243,217 0,151 -150,258 -291,207 z" id="path2948" inkscape:connector-curvature="0"/>
    <path d="m 5444,3390 c -43,-14 -111,-90 -119,-134 -22,-112 61,-216 172,-216 60,0 96,15 134,57 39,41 49,66 49,118 0,122 -120,210 -236,175 z" id="path2950" inkscape:connector-curvature="0"/>
  </g>
  <g id="g2952" style="opacity:1;fill:#ffa300;stroke:none" transform="translate(-1886.25,-1895.9773)">
    <path d="m 3040,5975 c -445,-84 -847,-452 -1035,-945 -42,-109 -89,-296 -106,-420 -17,-121 -17,-458 0,-575 71,-495 273,-906 628,-1276 165,-171 384,-343 525,-409 103,-49 184,-39 242,30 33,40 33,73 1,130 -59,104 -115,230 -135,305 -30,112 -37,292 -16,411 44,256 141,461 416,879 76,116 157,244 179,286 115,213 178,558 153,835 -15,170 -43,276 -104,403 -84,175 -217,288 -393,336 -84,23 -262,28 -355,10 z" id="path2954" inkscape:connector-curvature="0"/>
    <path d="m 5325,5984 c -221,-36 -379,-152 -478,-350 -37,-72 -71,-175 -86,-256 l -8,-48 109,-61 c 237,-133 419,-197 530,-185 83,8 116,25 198,101 93,85 152,115 224,115 44,0 60,-5 85,-25 58,-49 63,-80 64,-421 2,-291 1,-314 -21,-399 -12,-49 -43,-133 -68,-186 l -46,-96 35,-89 c 125,-312 155,-647 87,-971 -51,-245 -166,-492 -321,-690 -27,-34 -45,-64 -40,-67 11,-7 195,115 296,197 113,91 328,315 412,427 258,344 400,704 444,1119 16,156 7,444 -20,591 -68,381 -230,693 -490,942 -229,221 -498,344 -766,353 -60,2 -123,1 -140,-1 z" id="path2956" inkscape:connector-curvature="0"/>
    <path d="m 3937,4573 c -2,-5 -14,-38 -26,-74 -34,-104 -91,-206 -250,-448 -218,-333 -292,-469 -354,-647 -49,-140 -62,-221 -61,-359 2,-175 30,-267 149,-483 58,-106 46,-208 -36,-283 l -40,-37 83,-61 c 98,-72 309,-179 425,-215 175,-54 275,-69 468,-70 245,-1 413,31 614,117 487,208 823,619 937,1147 27,121 27,467 1,590 -22,105 -52,207 -78,267 l -20,46 -77,-80 c -42,-44 -133,-126 -202,-183 -224,-187 -327,-302 -404,-455 -19,-39 -67,-155 -107,-260 -90,-240 -172,-412 -253,-534 -138,-207 -304,-327 -381,-277 -43,28 -33,62 58,203 257,394 387,712 387,942 0,157 -9,171 -445,656 -136,152 -290,353 -335,436 -31,59 -45,75 -53,62 z m 172,-1113 c 23,-11 53,-39 68,-62 24,-36 28,-51 28,-118 0,-67 -4,-82 -28,-118 -37,-57 -95,-86 -173,-87 -118,0 -204,85 -204,203 0,164 161,258 309,182 z m 1481,-99 c 51,-25 82,-90 77,-159 -7,-90 -62,-143 -154,-149 -44,-3 -67,1 -93,15 -75,41 -107,135 -72,213 44,99 140,131 242,80 z" id="path2958" inkscape:connector-curvature="0"/>
  </g>
</svg>
